PathFileType	4	(X/Y/Z)	Kaydara	
DataRate	CameraRate	NumFrames	NumMarkers	Units	OrigDataRate	OrigDataStartFrame	OrigNumFrames	
60.00	60.00	4	74	mm	60.00	1098	111	
Frame#	Time	Y_rasi			Y_rpsi			Y_lpsi			Y_fneck			Y_bneck			Y_fhead			Y_rhead			Y_rshld			Y_relbtop			Y_relbext			Y_relblow			Y_rwrext			Y_rwrtop			Y_rwrlow			Y_lshld			Y_lelbext			Y_lelblow			Y_lelbtop			Y_lwrext			Y_lwrtop			Y_lwrlow			Y_rtopleg			Y_ltopleg			Y_rkneefr			Y_rkneebk			Y_rkneeis			Y_lkneefr			Y_lknssbk			Y_lkneeis			Y_rankfr			Y_rankis			Y_rankbk			Y_lankfr			Y_lankbk			Y_lankis			Y_lhead			Y_lasi			D_rpsi			D_lpsi			D_fneck			D_bneck			D_fhead			D_rhead			D_lhead			D_rshld			D_relbtop			D_relbext			D_relblow			D_rwrext			D_rwrtop			D_rwrlow			D_lshld			D_lelbext			D_lelblow			D_lelbtop			D_lwrext			D_lwrtop			D_lwrlow			D_rtopleg			D_ltopleg			D_rkneefr			D_rkneebk			D_rkneeis			D_lkneefr			D_lknssbk			D_lkneeis			D_rankfr			D_rankis			D_rankbk			D_lankfr			D_lankbk			D_lankis			D_lasi			D_rasi			
		X1	Y1	Z1	X2	Y2	Z2	X3	Y3	Z3	X4	Y4	Z4	X5	Y5	Z5	X6	Y6	Z6	X7	Y7	Z7	X8	Y8	Z8	X9	Y9	Z9	X10	Y10	Z10	X11	Y11	Z11	X12	Y12	Z12	X13	Y13	Z13	X14	Y14	Z14	X15	Y15	Z15	X16	Y16	Z16	X17	Y17	Z17	X18	Y18	Z18	X19	Y19	Z19	X20	Y20	Z20	X21	Y21	Z21	X22	Y22	Z22	X23	Y23	Z23	X24	Y24	Z24	X25	Y25	Z25	X26	Y26	Z26	X27	Y27	Z27	X28	Y28	Z28	X29	Y29	Z29	X30	Y30	Z30	X31	Y31	Z31	X32	Y32	Z32	X33	Y33	Z33	X34	Y34	Z34	X35	Y35	Z35	X36	Y36	Z36	X37	Y37	Z37	X38	Y38	Z38	X39	Y39	Z39	X40	Y40	Z40	X41	Y41	Z41	X42	Y42	Z42	X43	Y43	Z43	X44	Y44	Z44	X45	Y45	Z45	X46	Y46	Z46	X47	Y47	Z47	X48	Y48	Z48	X49	Y49	Z49	X50	Y50	Z50	X51	Y51	Z51	X52	Y52	Z52	X53	Y53	Z53	X54	Y54	Z54	X55	Y55	Z55	X56	Y56	Z56	X57	Y57	Z57	X58	Y58	Z58	X59	Y59	Z59	X60	Y60	Z60	X61	Y61	Z61	X62	Y62	Z62	X63	Y63	Z63	X64	Y64	Z64	X65	Y65	Z65	X66	Y66	Z66	X67	Y67	Z67	X68	Y68	Z68	X69	Y69	Z69	X70	Y70	Z70	X71	Y71	Z71	X72	Y72	Z72	X73	Y73	Z73	X74	Y74	Z74	

98	18.283	-540.86052	1090.43106	-154.86942	-530.34992	1076.49605	-337.42050	-305.18217	1060.91820	-262.07024	-457.47162	1427.48047	-165.95509	-367.76279	1486.17126	-228.38669	-545.61401	1615.18372	-128.49318	-452.01656	1567.01996	-272.46538	-584.68597	1434.30969	-298.20688	-605.56145	1125.99350	-360.74375	-622.74666	1145.28816	-415.65964	-556.20972	1129.63997	-429.35863	-638.01891	884.41254	-316.35525	-667.93999	900.27824	-289.33559	-643.99879	919.23386	-256.24973	-234.09283	1388.48297	-98.61261	-145.58404	1086.53809	-181.83205	-190.12806	1080.29022	-221.37835	-205.37470	1092.42996	-146.89897	-266.68844	858.37662	-121.91751	-267.91628	866.21239	-79.48158	-308.34673	892.76146	-79.68278	-607.15614	918.40759	-300.42707	-275.30882	906.84479	-154.23051	-635.07874	413.42258	-283.49718	-611.43925	455.30609	-359.00230	-539.39781	418.66741	-272.52752	-327.81517	475.25673	-124.87242	-262.99120	493.28686	-217.88704	-383.97739	469.06414	-203.65757	-630.70786	142.30352	-331.44234	-559.94469	133.64758	-342.88162	-600.22049	136.44798	-397.23450	-273.64210	131.65354	-172.06570	-256.04549	128.20466	-239.47439	-329.79012	126.14551	-209.85319	-373.79444	1574.59167	-147.07512	-388.20126	1072.20451	-102.94640	-1011.73882	1174.26216	570.95215	-1134.09378	1180.74661	442.49035	-978.01147	1600.17456	425.07999	-1077.55203	1654.18777	480.34191	-918.66325	1781.94611	308.09580	-981.09314	1797.76245	474.91905	-1084.84589	1790.84900	362.61700	-900.82817	1563.78479	571.27224	-869.69322	1193.18016	537.47189	-821.72600	1202.80418	583.73844	-888.98521	1184.63730	621.53404	-778.92365	922.25929	498.96446	-758.45924	938.92250	464.90101	-793.57758	949.79767	433.05996	-1199.68704	1555.10620	334.98264	-1182.91000	1181.03043	278.44746	-1183.79021	1161.45988	354.68910	-1123.95355	1191.26305	298.16441	-1101.36208	936.88072	266.74215	-1071.83067	957.32101	237.61227	-1039.47449	963.45497	273.40067	-895.01923	1039.09317	584.19369	-1134.08508	1023.64761	324.90929	-784.40392	567.50561	466.64135	-841.44997	561.23985	563.69144	-898.89740	542.50664	455.83736	-1035.95314	468.38116	374.32823	-1133.44940	514.13990	412.40452	-1052.80594	502.43961	485.83576	-794.00978	198.91010	523.47260	-854.10767	188.38978	475.62374	-868.94791	185.19335	561.15116	-1065.04311	159.06714	407.12967	-1087.66670	150.82276	483.93883	-1004.15756	167.02579	447.20169	-1027.47231	1186.68861	322.55676	-882.34383	1184.11613	465.78396 
99	18.300	-540.70366	1090.29800	-155.05816	-530.17574	1076.42090	-337.66552	-304.99851	1060.78499	-262.11422	-457.88300	1427.44919	-165.81198	-367.85263	1486.13266	-228.12277	-546.30009	1614.90753	-128.79920	-451.88389	1567.00775	-272.29683	-584.88297	1433.99353	-298.17171	-605.26997	1125.57663	-360.42278	-622.40368	1144.69452	-415.50541	-555.83614	1129.25842	-429.20815	-637.06020	883.93349	-316.11761	-666.75003	899.83032	-288.65250	-642.57843	918.62701	-255.94398	-234.20876	1388.38318	-98.39201	-146.27285	1086.13808	-181.44737	-190.55876	1080.07988	-221.22265	-206.39574	1092.17484	-146.69641	-267.23953	857.94830	-121.91038	-268.17968	865.74181	-79.52274	-309.07804	892.20772	-80.14957	-606.69563	918.23914	-301.18853	-275.48916	906.58333	-154.03221	-635.05749	413.38284	-283.44294	-611.24527	455.19760	-358.98788	-539.34124	418.30212	-272.43786	-328.02971	475.12707	-124.80923	-263.30881	493.27431	-218.06229	-384.21318	468.95863	-203.61938	-630.71404	142.26939	-331.33770	-559.91776	133.57283	-342.77718	-600.14847	136.44172	-397.17548	-273.75038	131.66013	-172.08218	-256.12558	128.19043	-239.49299	-329.84390	126.07186	-209.82660	-374.15024	1574.28757	-145.83246	-388.32043	1072.12105	-103.52642	-1010.51949	1174.42924	570.74444	-1133.53806	1180.66254	443.11493	-977.72644	1600.18875	424.48818	-1077.02332	1654.38278	479.56558	-918.61740	1781.80908	306.51520	-980.61760	1798.08395	473.33519	-1084.76524	1790.76935	361.45355	-899.95972	1564.30466	570.16968	-868.75824	1193.23112	537.05753	-821.40099	1203.12202	583.86776	-889.27086	1185.28549	621.14841	-778.79921	921.25557	503.48587	-757.25441	937.33444	469.57161	-791.64894	948.01376	436.74858	-1199.66293	1554.29138	334.95201	-1182.91687	1179.99008	279.86910	-1183.14003	1160.57320	356.01219	-1123.66272	1190.11467	299.52730	-1101.21498	935.94536	268.54347	-1073.40622	955.91644	237.53742	-1039.12506	963.59550	270.37266	-893.76198	1038.68752	583.45390	-1133.36304	1023.85521	324.81934	-792.13768	566.45439	467.22134	-846.67000	561.04137	565.50499	-906.36620	541.61942	458.67191	-1034.02451	468.50723	372.80762	-1131.45569	514.37840	410.68550	-1051.05186	502.50641	484.52217	-794.82910	199.09212	523.56628	-855.92918	187.53483	477.57580	-868.18718	184.37908	562.89658	-1064.34868	159.28397	406.66386	-1087.48108	151.23652	483.67062	-1003.66409	166.91769	446.89598	-1026.92078	1186.72165	322.55249	-881.17371	1184.09218	465.29446 
100	18.317	-540.64342	1090.17136	-155.19682	-529.93328	1076.35437	-337.80846	-304.85636	1060.68321	-262.04935	-458.30345	1427.51373	-165.82039	-367.96471	1486.16592	-227.83510	-546.92238	1614.69406	-128.97888	-451.82526	1567.09885	-272.09427	-585.02464	1433.78815	-298.45215	-607.67994	1127.15904	-359.78580	-621.65741	1144.35379	-415.69237	-555.03105	1128.86986	-428.99563	-636.41113	883.80692	-315.85901	-666.19080	900.12779	-288.55373	-641.45599	918.74840	-255.55628	-234.24892	1388.35770	-98.26563	-146.93649	1085.89745	-181.72876	-191.64272	1079.89845	-221.27422	-207.05860	1091.94885	-146.78047	-268.27145	857.71027	-121.30177	-268.33546	865.70908	-79.53987	-309.06382	892.60040	-80.90790	-606.37825	918.17101	-301.51175	-275.68272	906.31989	-153.74354	-635.04749	413.54263	-283.47559	-611.05602	455.09014	-359.03629	-539.36810	418.12126	-272.29183	-328.02349	475.07271	-124.90934	-263.32489	493.24581	-218.25300	-384.17015	468.98727	-203.79557	-630.65105	142.25757	-331.28117	-560.01129	133.47300	-342.61810	-600.05016	136.44150	-397.10129	-273.70029	131.66408	-172.14504	-256.14716	128.17424	-239.51519	-329.85886	126.08364	-209.87387	-374.43775	1574.08722	-145.06907	-388.12504	1072.10243	-103.01278	-1009.98611	1174.96071	570.70843	-1132.97989	1180.69847	442.73247	-977.20932	1600.31204	423.55946	-1076.23978	1654.66202	478.62282	-918.58109	1781.66611	304.67402	-980.05501	1798.31329	471.93558	-1084.51088	1790.75989	360.42805	-899.21074	1564.91470	569.48433	-867.71355	1193.59619	536.37077	-821.15250	1203.58078	584.39472	-890.03372	1185.99808	620.26100	-779.45976	920.69168	507.28615	-756.02982	935.83397	474.75704	-789.47990	946.28212	440.98576	-1199.90883	1553.66959	335.28587	-1182.95998	1179.50821	281.05429	-1181.50681	1160.25513	356.82114	-1123.41736	1189.62845	299.82050	-1101.46362	935.78171	269.36392	-1075.41946	954.98787	236.69659	-1039.39720	963.40843	267.23898	-892.70935	1039.08554	583.10051	-1132.91641	1024.20670	324.78886	-798.27286	566.64642	467.73888	-849.89960	561.57875	567.64080	-912.13669	541.63445	461.91780	-1031.96167	468.72978	371.41201	-1129.28726	514.55597	409.60377	-1048.79166	502.72182	483.10074	-796.13586	199.62469	523.99834	-858.22914	187.45415	479.12655	-868.15598	184.13380	564.38953	-1063.58871	159.16232	406.35719	-1086.86806	151.56778	483.23418	-1002.92770	166.84097	446.67660	-1026.62170	1187.03018	322.72987	-880.25932	1184.46495	464.76269 
101	18.333	-540.69813	1090.16922	-155.30034	-529.69532	1076.39320	-337.88055	-304.68882	1060.67139	-261.88097	-458.63232	1427.57370	-165.99213	-368.10753	1486.19858	-227.60237	-547.35752	1614.48761	-128.85495	-451.89701	1567.22458	-271.79787	-585.05089	1433.70529	-298.83705	-607.51926	1127.10579	-359.91791	-620.61729	1144.29062	-416.19946	-553.82767	1128.51440	-428.99933	-636.15074	883.92097	-315.82096	-665.88875	900.27023	-288.52486	-641.22620	919.07585	-255.41117	-234.21120	1388.40393	-98.16648	-147.71918	1085.80452	-182.22523	-192.61282	1079.78775	-221.30131	-207.07397	1092.03102	-146.86744	-268.71130	857.82387	-121.08734	-268.67006	865.95810	-79.36720	-309.47273	892.40517	-78.48283	-606.16344	918.30605	-301.55294	-275.78371	906.19934	-153.38299	-635.14050	413.54660	-283.53745	-611.01860	455.08610	-359.01611	-539.32903	418.17333	-272.17419	-327.86137	475.09907	-124.94857	-262.92768	493.29178	-218.47662	-383.89603	469.04064	-203.94131	-630.57377	142.23030	-331.23024	-559.78996	133.56502	-342.71290	-600.01995	136.45634	-397.10205	-273.62583	131.64078	-172.15515	-255.95705	128.14932	-239.61636	-329.79317	126.11036	-209.91150	-373.73272	1574.61594	-142.23637	-388.20396	1072.10892	-103.21565	-1009.18060	1175.43762	570.76603	-1132.91603	1180.58693	443.96240	-976.78894	1600.42160	422.64153	-1075.68390	1655.09552	478.00259	-918.57758	1781.56616	302.84683	-979.25369	1798.65799	470.27973	-1084.19098	1790.79651	359.23779	-898.28239	1565.45883	568.75210	-867.05254	1194.26476	535.96268	-821.49063	1203.89244	585.08766	-891.62880	1186.66519	619.16691	-778.70964	919.62936	512.64431	-754.45869	934.62830	480.35255	-786.59348	944.99969	445.15888	-1200.18288	1553.46863	335.71182	-1183.24280	1179.36295	282.25277	-1179.02290	1160.33920	357.73746	-1123.42232	1189.45099	298.84670	-1101.99890	935.83313	269.44485	-1077.37617	954.59465	235.40953	-1040.24612	963.20290	264.59282	-892.21764	1039.85565	582.84473	-1132.39037	1024.44954	324.98169	-802.62535	566.97159	469.21333	-852.13120	562.30316	570.07496	-916.25885	542.04807	465.15228	-1029.90631	468.67989	370.19417	-1127.11777	514.67834	408.89690	-1046.02951	502.83047	481.77700	-796.97815	200.20197	524.68002	-859.53194	187.87489	480.43243	-868.51799	184.26500	565.61398	-1062.75024	159.08855	406.61751	-1085.91324	151.92756	483.16856	-1002.05826	166.65102	446.45557	-1026.71013	1187.56943	322.96513	-879.64561	1185.33440	464.23252 
